<svg width="40" height="40" viewBox="0 0 40 40" fill="none" xmlns="http://www.w3.org/2000/svg">
<path d="M24.1423 20.4501C24.1423 18.2884 22.3755 16.5293 20.2038 16.5293C18.0324 16.5293 16.2656 18.2884 16.2656 20.4501C16.2656 22.6124 18.0324 24.3712 20.2038 24.3712C22.3755 24.3712 24.1423 22.6124 24.1423 20.4501ZM29.9935 0.0400391H10.005C4.49794 0.0400391 0.0175781 4.50092 0.0175781 9.98392V12.7546H14.7141C16.2649 11.6547 18.1588 11.005 20.2038 11.005C22.2488 11.005 24.143 11.6547 25.6939 12.7546H39.9809V9.98392C39.9809 4.50088 35.5006 0.0400391 29.9935 0.0400391ZM34.0383 9.49744C34.0383 10.1051 33.5391 10.6023 32.9286 10.6023H29.4998C28.8894 10.6023 28.3901 10.1051 28.3901 9.49744V6.08336C28.3901 5.47576 28.8893 4.97848 29.4998 4.97848H32.9286C33.5391 4.97848 34.0383 5.47568 34.0383 6.08336V9.49744V9.49744ZM29.6908 20.4501C29.6908 25.6587 25.4347 29.8954 20.2038 29.8954C14.9727 29.8954 10.717 25.6587 10.717 20.4501C10.717 19.0162 11.0414 17.6563 11.6183 16.4374H0.0175781V30.0479C0.0175781 35.5313 4.49794 39.9918 10.005 39.9918H29.9936C35.5006 39.9918 39.981 35.5313 39.981 30.0479V16.4374H28.7895C29.3664 17.6563 29.6908 19.0162 29.6908 20.4501Z" fill="#4D4D4D"/>
</svg>
