<svg width="48" height="31" viewBox="0 0 48 31" fill="none" xmlns="http://www.w3.org/2000/svg">
<path d="M44 4.01562H30V0.015625H44V4.01562ZM47.452 24.0156C46.568 26.6096 43.394 30.0156 37.25 30.0156C31.102 30.0156 26.122 26.5576 26.122 18.6656C26.122 10.8456 30.772 6.82562 37.054 6.82562C43.218 6.82562 46.982 10.3896 47.804 15.6776C47.96 16.6896 48.022 18.0536 47.994 19.9576H31.94C32.2 26.3796 38.906 26.5816 41.116 24.0156H47.452ZM32.08 16.0156H42.01C41.8 12.9216 39.738 11.5776 37.056 11.5776C34.124 11.5776 32.502 13.1136 32.08 16.0156ZM12.932 29.9916H0V0.0576248H13.906C24.858 0.219625 25.066 10.9456 19.346 13.8696C26.268 16.3896 26.5 29.9916 12.932 29.9916ZM6 12.0156H13.168C18.184 12.0156 18.98 6.01562 12.544 6.01562H6V12.0156ZM12.782 18.0156H6V24.0476H12.682C18.792 24.0476 18.418 18.0156 12.782 18.0156Z" fill="#4D4D4D"/>
</svg>
