<svg width="38" height="38" viewBox="0 0 38 38" fill="none" xmlns="http://www.w3.org/2000/svg">
<path fill-rule="evenodd" clip-rule="evenodd" d="M0.666016 3.74595C0.666016 2.93351 0.988759 2.15434 1.56325 1.57985C2.13773 1.00536 2.9169 0.682621 3.72935 0.682621H34.266C34.6686 0.681964 35.0674 0.760726 35.4396 0.914399C35.8117 1.06807 36.1499 1.29364 36.4348 1.57818C36.7196 1.86273 36.9456 2.20066 37.0996 2.57264C37.2537 2.94461 37.3329 3.34333 37.3327 3.74595V34.2826C37.3331 34.6853 37.2542 35.0842 37.1003 35.4563C36.9464 35.8285 36.7207 36.1666 36.436 36.4515C36.1514 36.7363 35.8133 36.9622 35.4413 37.1163C35.0692 37.2703 34.6704 37.3495 34.2677 37.3493H3.72935C3.32693 37.3493 2.92845 37.27 2.55668 37.1159C2.18491 36.9619 1.84713 36.7361 1.56266 36.4515C1.27818 36.1668 1.05257 35.8289 0.89872 35.4571C0.744871 35.0852 0.665797 34.6867 0.666016 34.2843V3.74595ZM15.1793 14.6626H20.1444V17.156C20.861 15.7226 22.6943 14.4326 25.4493 14.4326C30.731 14.4326 31.9827 17.2876 31.9827 22.526V32.2293H26.6377V23.7193C26.6377 20.736 25.921 19.0526 24.101 19.0526C21.576 19.0526 20.526 20.8676 20.526 23.7193V32.2293H15.1793V14.6626ZM6.01268 32.001H11.3594V14.4326H6.01268V31.9993V32.001ZM12.1244 8.70262C12.1344 9.16041 12.053 9.6156 11.8847 10.0415C11.7165 10.4674 11.4649 10.8553 11.1447 11.1827C10.8245 11.51 10.4422 11.7701 10.0201 11.9476C9.59804 12.1252 9.14475 12.2166 8.68685 12.2166C8.22895 12.2166 7.77566 12.1252 7.35359 11.9476C6.93152 11.7701 6.54916 11.51 6.22896 11.1827C5.90876 10.8553 5.65717 10.4674 5.48895 10.0415C5.32073 9.6156 5.23927 9.16041 5.24935 8.70262C5.26914 7.80404 5.63999 6.94894 6.28249 6.32043C6.92499 5.69192 7.78806 5.33998 8.68685 5.33998C9.58564 5.33998 10.4487 5.69192 11.0912 6.32043C11.7337 6.94894 12.1046 7.80404 12.1244 8.70262V8.70262Z" fill="#4D4D4D"/>
</svg>
