<svg width="48" height="37" viewBox="0 0 48 37" fill="none" xmlns="http://www.w3.org/2000/svg">
<path d="M47.6856 7.96469C47.6856 3.74594 44.5824 0.352187 40.7481 0.352187C35.5543 0.109375 30.2574 0.015625 24.8443 0.015625H23.1568C17.7568 0.015625 12.4506 0.109375 7.25682 0.353125C3.43182 0.353125 0.328695 3.76562 0.328695 7.98437C0.0943201 11.3209 -0.0050549 14.6584 0.000570101 17.9959C-0.0088049 21.3334 0.0974451 24.6741 0.31932 28.0178C0.31932 32.2366 3.42245 35.6584 7.24745 35.6584C12.7037 35.9116 18.3006 36.0241 23.9912 36.0147C29.6912 36.0334 35.2724 35.9147 40.7349 35.6584C44.5693 35.6584 47.6724 32.2366 47.6724 28.0178C47.8974 24.6709 48.0006 21.3334 47.9912 17.9866C48.0124 14.6491 47.9106 11.3084 47.6856 7.96469ZM19.4068 27.1928V8.77094L33.0006 17.9772L19.4068 27.1928Z" fill="#4D4D4D"/>
</svg>
